<mxfile host="app.diagrams.net" modified="2021-09-07T07:33:13.522Z" agent="5.0 (Windows)" etag="C_pwiek1UPTY7nDZxEPt" version="15.1.0" type="github">
  <diagram name="Page-1" id="e7e014a7-5840-1c2e-5031-d8a46d1fe8dd">
    <mxGraphModel dx="1673" dy="931" grid="1" gridSize="10" guides="1" tooltips="1" connect="1" arrows="1" fold="1" page="1" pageScale="1" pageWidth="1169" pageHeight="826" background="none" math="0" shadow="0">
      <root>
        <mxCell id="0" />
        <mxCell id="1" parent="0" />
        <mxCell id="xwlEYZinoC3OY1tXjN9s-45" style="edgeStyle=orthogonalEdgeStyle;rounded=0;orthogonalLoop=1;jettySize=auto;html=1;entryX=0;entryY=0.375;entryDx=0;entryDy=0;entryPerimeter=0;" edge="1" parent="1" target="xwlEYZinoC3OY1tXjN9s-44">
          <mxGeometry relative="1" as="geometry">
            <mxPoint x="380" y="260" as="sourcePoint" />
          </mxGeometry>
        </mxCell>
        <mxCell id="xwlEYZinoC3OY1tXjN9s-48" style="edgeStyle=orthogonalEdgeStyle;rounded=0;orthogonalLoop=1;jettySize=auto;html=1;" edge="1" parent="1" source="xwlEYZinoC3OY1tXjN9s-41" target="xwlEYZinoC3OY1tXjN9s-46">
          <mxGeometry relative="1" as="geometry" />
        </mxCell>
        <mxCell id="xwlEYZinoC3OY1tXjN9s-41" value="Користувач" style="shape=umlActor;verticalLabelPosition=bottom;verticalAlign=top;html=1;outlineConnect=0;" vertex="1" parent="1">
          <mxGeometry x="350" y="230" width="30" height="60" as="geometry" />
        </mxCell>
        <mxCell id="xwlEYZinoC3OY1tXjN9s-55" style="edgeStyle=orthogonalEdgeStyle;rounded=0;orthogonalLoop=1;jettySize=auto;html=1;" edge="1" parent="1" source="xwlEYZinoC3OY1tXjN9s-42" target="xwlEYZinoC3OY1tXjN9s-49">
          <mxGeometry relative="1" as="geometry" />
        </mxCell>
        <mxCell id="xwlEYZinoC3OY1tXjN9s-56" style="edgeStyle=orthogonalEdgeStyle;rounded=0;orthogonalLoop=1;jettySize=auto;html=1;" edge="1" parent="1" source="xwlEYZinoC3OY1tXjN9s-42" target="xwlEYZinoC3OY1tXjN9s-51">
          <mxGeometry relative="1" as="geometry">
            <Array as="points">
              <mxPoint x="590" y="520" />
            </Array>
          </mxGeometry>
        </mxCell>
        <mxCell id="xwlEYZinoC3OY1tXjN9s-57" style="edgeStyle=orthogonalEdgeStyle;rounded=0;orthogonalLoop=1;jettySize=auto;html=1;" edge="1" parent="1" source="xwlEYZinoC3OY1tXjN9s-42">
          <mxGeometry relative="1" as="geometry">
            <mxPoint x="650" y="520.0000000000001" as="targetPoint" />
          </mxGeometry>
        </mxCell>
        <mxCell id="xwlEYZinoC3OY1tXjN9s-42" value="Адміністратор" style="shape=umlActor;verticalLabelPosition=bottom;verticalAlign=top;html=1;outlineConnect=0;" vertex="1" parent="1">
          <mxGeometry x="360" y="490" width="30" height="60" as="geometry" />
        </mxCell>
        <mxCell id="xwlEYZinoC3OY1tXjN9s-44" value="Пошук інформації" style="ellipse;whiteSpace=wrap;html=1;" vertex="1" parent="1">
          <mxGeometry x="530" y="150" width="120" height="80" as="geometry" />
        </mxCell>
        <mxCell id="xwlEYZinoC3OY1tXjN9s-46" value="Ігри" style="ellipse;whiteSpace=wrap;html=1;" vertex="1" parent="1">
          <mxGeometry x="530" y="270" width="120" height="80" as="geometry" />
        </mxCell>
        <mxCell id="xwlEYZinoC3OY1tXjN9s-49" value="Надавання доступу до комп&#39;ютера" style="ellipse;whiteSpace=wrap;html=1;" vertex="1" parent="1">
          <mxGeometry x="530" y="390" width="120" height="80" as="geometry" />
        </mxCell>
        <mxCell id="xwlEYZinoC3OY1tXjN9s-51" value="Слідкує за порядком" style="ellipse;whiteSpace=wrap;html=1;" vertex="1" parent="1">
          <mxGeometry x="530" y="560" width="120" height="80" as="geometry" />
        </mxCell>
        <mxCell id="xwlEYZinoC3OY1tXjN9s-58" value="Обмежує деякі функції" style="ellipse;whiteSpace=wrap;html=1;" vertex="1" parent="1">
          <mxGeometry x="650" y="480" width="120" height="80" as="geometry" />
        </mxCell>
      </root>
    </mxGraphModel>
  </diagram>
</mxfile>
